<mxfile host="app.diagrams.net" modified="2024-04-29T15:34:21.512Z" agent="Mozilla/5.0 (Macintosh; Intel Mac OS X 10_15_7) AppleWebKit/537.36 (KHTML, like Gecko) Chrome/123.0.0.0 Safari/537.36" etag="k7yQsfsxPiZ0RLWomEPT" version="24.2.7" type="device">
  <diagram name="Page-1" id="e61yjjOJU-r9nyEs_4MU">
    <mxGraphModel dx="1368" dy="867" grid="1" gridSize="10" guides="1" tooltips="1" connect="1" arrows="1" fold="1" page="1" pageScale="1" pageWidth="850" pageHeight="1100" math="0" shadow="0">
      <root>
        <mxCell id="0" />
        <mxCell id="1" parent="0" />
        <mxCell id="bb9XWtV2WONAN2IJHLme-1" value="ALB" style="outlineConnect=0;dashed=0;verticalLabelPosition=bottom;verticalAlign=top;align=center;html=1;shape=mxgraph.aws3.application_load_balancer;fillColor=#F58534;gradientColor=none;" vertex="1" parent="1">
          <mxGeometry x="200" y="180.5" width="69" height="72" as="geometry" />
        </mxCell>
        <mxCell id="bb9XWtV2WONAN2IJHLme-3" style="edgeStyle=orthogonalEdgeStyle;rounded=0;orthogonalLoop=1;jettySize=auto;html=1;" edge="1" parent="1" source="bb9XWtV2WONAN2IJHLme-2" target="bb9XWtV2WONAN2IJHLme-1">
          <mxGeometry relative="1" as="geometry" />
        </mxCell>
        <mxCell id="bb9XWtV2WONAN2IJHLme-2" value="" style="outlineConnect=0;dashed=0;verticalLabelPosition=bottom;verticalAlign=top;align=center;html=1;shape=mxgraph.aws3.users;fillColor=#D2D3D3;gradientColor=none;" vertex="1" parent="1">
          <mxGeometry x="40" y="185" width="66" height="63" as="geometry" />
        </mxCell>
        <mxCell id="bb9XWtV2WONAN2IJHLme-4" value="EC2" style="outlineConnect=0;dashed=0;verticalLabelPosition=bottom;verticalAlign=top;align=center;html=1;shape=mxgraph.aws3.ec2;fillColor=#F58534;gradientColor=none;" vertex="1" parent="1">
          <mxGeometry x="320" y="130" width="65.81" height="80" as="geometry" />
        </mxCell>
        <mxCell id="bb9XWtV2WONAN2IJHLme-6" value="EC2" style="outlineConnect=0;dashed=0;verticalLabelPosition=bottom;verticalAlign=top;align=center;html=1;shape=mxgraph.aws3.ec2;fillColor=#F58534;gradientColor=none;" vertex="1" parent="1">
          <mxGeometry x="320" y="240" width="65.81" height="80" as="geometry" />
        </mxCell>
        <mxCell id="bb9XWtV2WONAN2IJHLme-7" style="edgeStyle=orthogonalEdgeStyle;rounded=0;orthogonalLoop=1;jettySize=auto;html=1;exitX=0.855;exitY=0.145;exitDx=0;exitDy=0;exitPerimeter=0;entryX=0;entryY=0.5;entryDx=0;entryDy=0;entryPerimeter=0;" edge="1" parent="1" source="bb9XWtV2WONAN2IJHLme-1" target="bb9XWtV2WONAN2IJHLme-4">
          <mxGeometry relative="1" as="geometry" />
        </mxCell>
        <mxCell id="bb9XWtV2WONAN2IJHLme-9" style="edgeStyle=orthogonalEdgeStyle;rounded=0;orthogonalLoop=1;jettySize=auto;html=1;exitX=0.855;exitY=0.855;exitDx=0;exitDy=0;exitPerimeter=0;entryX=0;entryY=0.5;entryDx=0;entryDy=0;entryPerimeter=0;" edge="1" parent="1" source="bb9XWtV2WONAN2IJHLme-1" target="bb9XWtV2WONAN2IJHLme-6">
          <mxGeometry relative="1" as="geometry" />
        </mxCell>
        <mxCell id="bb9XWtV2WONAN2IJHLme-18" value="Elasticache&lt;br&gt;Redis" style="sketch=0;points=[[0,0,0],[0.25,0,0],[0.5,0,0],[0.75,0,0],[1,0,0],[0,1,0],[0.25,1,0],[0.5,1,0],[0.75,1,0],[1,1,0],[0,0.25,0],[0,0.5,0],[0,0.75,0],[1,0.25,0],[1,0.5,0],[1,0.75,0]];outlineConnect=0;fontColor=#232F3E;fillColor=#C925D1;strokeColor=#ffffff;dashed=0;verticalLabelPosition=bottom;verticalAlign=top;align=center;html=1;fontSize=12;fontStyle=0;aspect=fixed;shape=mxgraph.aws4.resourceIcon;resIcon=mxgraph.aws4.elasticache;" vertex="1" parent="1">
          <mxGeometry x="540" y="178" width="78" height="78" as="geometry" />
        </mxCell>
        <mxCell id="bb9XWtV2WONAN2IJHLme-19" style="edgeStyle=orthogonalEdgeStyle;rounded=0;orthogonalLoop=1;jettySize=auto;html=1;exitX=1;exitY=0.5;exitDx=0;exitDy=0;exitPerimeter=0;entryX=0;entryY=0.25;entryDx=0;entryDy=0;entryPerimeter=0;" edge="1" parent="1" source="bb9XWtV2WONAN2IJHLme-4" target="bb9XWtV2WONAN2IJHLme-18">
          <mxGeometry relative="1" as="geometry" />
        </mxCell>
        <mxCell id="bb9XWtV2WONAN2IJHLme-20" style="edgeStyle=orthogonalEdgeStyle;rounded=0;orthogonalLoop=1;jettySize=auto;html=1;exitX=1;exitY=0.5;exitDx=0;exitDy=0;exitPerimeter=0;entryX=0;entryY=0.75;entryDx=0;entryDy=0;entryPerimeter=0;" edge="1" parent="1" source="bb9XWtV2WONAN2IJHLme-6" target="bb9XWtV2WONAN2IJHLme-18">
          <mxGeometry relative="1" as="geometry" />
        </mxCell>
        <mxCell id="bb9XWtV2WONAN2IJHLme-21" value="DynamoDB" style="sketch=0;points=[[0,0,0],[0.25,0,0],[0.5,0,0],[0.75,0,0],[1,0,0],[0,1,0],[0.25,1,0],[0.5,1,0],[0.75,1,0],[1,1,0],[0,0.25,0],[0,0.5,0],[0,0.75,0],[1,0.25,0],[1,0.5,0],[1,0.75,0]];outlineConnect=0;fontColor=#232F3E;fillColor=#C925D1;strokeColor=#ffffff;dashed=0;verticalLabelPosition=bottom;verticalAlign=top;align=center;html=1;fontSize=12;fontStyle=0;aspect=fixed;shape=mxgraph.aws4.resourceIcon;resIcon=mxgraph.aws4.dynamodb;" vertex="1" parent="1">
          <mxGeometry x="740" y="185" width="78" height="78" as="geometry" />
        </mxCell>
        <mxCell id="bb9XWtV2WONAN2IJHLme-22" style="edgeStyle=orthogonalEdgeStyle;rounded=0;orthogonalLoop=1;jettySize=auto;html=1;exitX=1;exitY=0.21;exitDx=0;exitDy=0;exitPerimeter=0;entryX=0.25;entryY=0;entryDx=0;entryDy=0;entryPerimeter=0;" edge="1" parent="1" source="bb9XWtV2WONAN2IJHLme-4" target="bb9XWtV2WONAN2IJHLme-21">
          <mxGeometry relative="1" as="geometry" />
        </mxCell>
        <mxCell id="bb9XWtV2WONAN2IJHLme-23" style="edgeStyle=orthogonalEdgeStyle;rounded=0;orthogonalLoop=1;jettySize=auto;html=1;exitX=1;exitY=0.79;exitDx=0;exitDy=0;exitPerimeter=0;entryX=0.25;entryY=1;entryDx=0;entryDy=0;entryPerimeter=0;" edge="1" parent="1" source="bb9XWtV2WONAN2IJHLme-6" target="bb9XWtV2WONAN2IJHLme-21">
          <mxGeometry relative="1" as="geometry" />
        </mxCell>
      </root>
    </mxGraphModel>
  </diagram>
</mxfile>
